# xmcd
# 
# Track frame offsets:
#     150
#     16259
#     37075
#     56019
#     76278
#     87635
#     101842
# 
# Disc length: 1556
# 
# Revision: 0
# Processed by: cddbd v1.5.2PL0 Copyright (c) Steve Scherf et al.
# Submitted via: fre:ac v1.0.17
# 
DISCID=56061207
DTITLE=Various Artist - Hear Something Acoustic Chill
DYEAR=2009
DGENRE=Acoustic
TTITLE0=Sarah McLachlan - Fallen (Acoustic version)
TTITLE1=Howie Day - Collide (Acoustic version)
TTITLE2=Daughtry - Home (Acoustic version)
TTITLE3=Landon Pigg - Falling In Love at A Coffee Shop
TTITLE4=Brandi Carlile - Have You Ever
TTITLE5=Good Charlotte - Lifestyles Of The Rich and Famous (Acoustic version)
TTITLE6=Kelly Clarkson - Since U Been Gone (Acoustic version)
EXTD=
EXTT0=
EXTT1=
EXTT2=
EXTT3=
EXTT4=
EXTT5=
EXTT6=
PLAYORDER=
